<svg id="svg" version="1.1" width="400" height="98.88000000000001" viewBox="0 0 400 98.88000000000001" xmlns="http://www.w3.org/2000/svg" xmlns:xlink="http://www.w3.org/1999/xlink" ><g id="svgg"><path id="path0" d="M54.491 8.326 C 51.230 11.732,49.249 13.862,49.284 13.925 C 49.303 13.958,48.507 14.832,47.516 15.868 C 46.525 16.903,45.272 18.249,44.732 18.858 C 44.192 19.468,42.962 20.820,42.000 21.863 C 35.000 29.451,32.795 31.852,31.941 32.815 C 31.405 33.421,30.389 34.517,29.684 35.250 C 28.979 35.983,28.154 36.883,27.850 37.250 C 27.547 37.617,26.682 38.554,25.929 39.333 C 25.176 40.112,24.390 40.975,24.183 41.250 C 23.976 41.525,23.025 42.553,22.070 43.534 C 21.115 44.515,20.333 45.379,20.333 45.454 C 20.333 45.528,19.691 46.225,18.905 47.003 C 18.120 47.780,17.081 48.904,16.598 49.500 C 16.114 50.096,15.252 51.033,14.683 51.583 C 14.114 52.133,13.174 53.146,12.594 53.833 C 12.015 54.521,10.938 55.701,10.201 56.455 C 8.733 57.959,8.669 58.108,8.321 60.867 C 8.231 61.572,7.823 63.741,7.413 65.686 C 7.002 67.631,6.667 69.323,6.667 69.445 C 6.667 69.628,9.956 69.667,25.665 69.667 L 44.664 69.667 44.624 70.499 C 44.601 70.956,44.527 71.331,44.458 71.332 C 44.390 71.333,44.333 71.588,44.333 71.898 C 44.333 72.209,44.179 73.203,43.991 74.107 C 42.212 82.644,40.500 91.104,40.500 91.357 C 40.500 91.654,40.802 91.667,48.155 91.667 L 55.809 91.667 55.916 90.708 C 56.006 89.899,56.296 88.230,56.575 86.917 C 57.549 82.334,60.000 70.214,60.000 69.983 C 60.000 69.679,60.206 69.667,65.323 69.667 C 68.251 69.667,70.681 69.610,70.723 69.542 C 70.765 69.473,71.076 67.992,71.414 66.250 C 71.752 64.508,72.252 61.958,72.524 60.583 C 72.797 59.208,73.058 57.840,73.103 57.542 L 73.187 57.000 67.907 57.000 L 62.628 57.000 62.701 56.625 C 62.741 56.419,63.056 54.788,63.401 53.000 C 63.746 51.212,64.476 47.500,65.023 44.750 C 65.569 42.000,66.471 37.462,67.026 34.667 C 67.581 31.871,68.556 26.996,69.191 23.833 C 71.869 10.512,72.109 9.266,72.457 6.875 L 72.536 6.333 64.468 6.333 L 56.399 6.333 54.491 8.326 M113.167 15.761 C 112.204 15.880,110.629 16.063,109.667 16.167 C 108.077 16.339,104.439 16.823,100.363 17.403 C 98.403 17.683,98.641 17.230,97.592 22.667 C 97.548 22.896,97.272 24.227,96.978 25.625 L 96.444 28.167 91.808 28.167 L 87.173 28.167 87.085 28.542 C 86.155 32.506,84.845 38.368,84.804 38.750 L 84.750 39.250 89.559 39.294 C 93.454 39.330,94.351 39.380,94.283 39.558 C 94.236 39.679,93.771 41.946,93.249 44.597 C 92.726 47.248,91.438 53.631,90.385 58.781 C 89.332 63.932,88.409 68.620,88.333 69.198 C 88.258 69.777,88.008 71.262,87.777 72.500 C 86.815 77.657,86.752 81.101,87.579 83.333 C 87.833 84.021,88.153 84.901,88.290 85.290 C 88.443 85.725,88.611 85.955,88.727 85.888 C 88.832 85.829,88.860 85.842,88.791 85.918 C 88.495 86.244,90.725 88.847,92.339 90.061 C 96.249 93.000,106.233 93.524,114.531 91.225 C 115.613 90.925,115.571 90.988,115.832 89.234 C 115.940 88.510,116.404 86.055,116.864 83.780 C 117.797 79.156,117.804 79.328,116.713 79.797 C 111.994 81.824,106.804 81.100,105.394 78.218 C 104.426 76.240,104.551 74.772,106.492 65.351 C 107.142 62.198,107.635 59.580,107.588 59.533 C 107.541 59.486,107.580 59.354,107.674 59.241 C 107.769 59.127,107.910 58.483,107.988 57.809 C 108.066 57.135,108.623 54.221,109.227 51.333 C 109.830 48.446,110.363 45.858,110.410 45.583 C 110.458 45.308,110.531 44.933,110.573 44.750 C 110.614 44.567,110.891 43.273,111.188 41.875 L 111.726 39.333 118.166 39.333 L 124.606 39.333 125.635 34.375 C 126.200 31.648,126.706 29.135,126.758 28.792 L 126.854 28.167 120.332 28.167 C 114.198 28.167,113.816 28.149,113.901 27.875 C 113.998 27.559,114.982 22.850,115.094 22.167 C 115.131 21.938,115.316 21.037,115.505 20.167 C 115.693 19.296,115.919 18.023,116.008 17.338 C 116.096 16.652,116.210 15.959,116.262 15.796 C 116.376 15.437,115.841 15.431,113.167 15.761 M52.914 28.943 C 52.578 30.670,51.932 33.958,51.479 36.250 C 51.025 38.542,50.625 40.567,50.589 40.750 C 50.553 40.933,50.069 43.256,49.513 45.912 C 48.957 48.567,48.459 51.117,48.406 51.578 C 48.270 52.779,47.478 56.726,47.344 56.876 C 47.282 56.946,42.173 56.983,35.990 56.960 L 24.750 56.917 26.275 55.333 C 27.114 54.462,28.101 53.375,28.469 52.917 C 28.838 52.458,29.745 51.486,30.486 50.756 C 31.227 50.025,31.833 49.361,31.833 49.278 C 31.833 49.196,32.640 48.285,33.625 47.255 C 36.141 44.625,39.830 40.605,39.849 40.474 C 39.858 40.413,40.726 39.476,41.779 38.390 C 42.831 37.305,43.801 36.210,43.934 35.958 C 44.067 35.706,44.236 35.500,44.310 35.500 C 44.385 35.500,46.457 33.286,48.915 30.581 C 51.373 27.875,53.416 25.693,53.454 25.732 C 53.493 25.770,53.249 27.215,52.914 28.943 M255.417 27.079 C 254.683 27.195,253.633 27.418,253.083 27.573 C 252.533 27.729,251.797 27.927,251.447 28.015 C 247.336 29.041,240.177 35.085,235.080 41.833 C 234.353 42.796,233.644 43.709,233.504 43.862 C 233.364 44.015,233.063 44.456,232.833 44.842 C 232.604 45.228,231.887 46.340,231.239 47.313 C 229.926 49.287,228.794 51.182,228.216 52.375 C 228.005 52.810,227.739 53.166,227.625 53.164 C 227.467 53.162,227.465 53.131,227.615 53.035 C 227.724 52.966,227.890 52.311,227.983 51.580 C 228.077 50.848,228.534 48.413,228.999 46.167 C 229.464 43.921,230.298 39.892,230.852 37.214 C 231.406 34.536,231.812 32.267,231.754 32.172 C 231.695 32.078,231.726 32.000,231.823 32.000 C 231.921 32.000,232.003 31.719,232.006 31.375 C 232.009 31.031,232.119 30.262,232.250 29.667 C 232.381 29.071,232.491 28.489,232.494 28.374 C 232.499 28.207,230.725 28.173,223.888 28.207 L 215.277 28.250 214.062 34.167 C 213.394 37.421,212.689 40.946,212.496 42.000 C 212.302 43.054,211.319 47.967,210.311 52.917 C 209.303 57.867,208.411 62.442,208.330 63.083 C 208.249 63.725,207.620 66.950,206.932 70.250 C 206.245 73.550,205.645 76.438,205.601 76.667 C 205.556 76.896,205.254 78.433,204.928 80.083 C 204.603 81.733,203.992 84.846,203.571 87.000 C 203.150 89.154,202.767 91.085,202.718 91.292 L 202.631 91.667 211.315 91.667 C 219.015 91.667,220.000 91.638,220.000 91.411 C 220.000 91.270,220.447 89.001,220.994 86.369 C 221.540 83.737,222.023 81.396,222.067 81.167 C 222.111 80.938,222.564 78.778,223.073 76.368 C 223.583 73.959,224.000 71.742,224.000 71.442 C 224.000 71.032,224.380 70.330,225.542 68.599 C 226.390 67.335,227.350 65.864,227.677 65.330 C 228.501 63.983,231.797 59.499,235.250 55.028 C 236.905 52.886,238.030 51.515,238.829 50.667 C 239.304 50.163,239.792 49.562,239.913 49.333 C 240.033 49.104,240.946 48.167,241.941 47.250 C 242.936 46.334,243.952 45.388,244.198 45.148 C 246.223 43.179,249.214 42.361,250.484 43.429 C 251.699 44.451,251.652 45.100,249.681 54.545 C 248.940 58.099,248.333 61.208,248.333 61.453 C 248.333 61.697,247.467 66.063,246.407 71.153 C 245.348 76.243,244.418 80.897,244.341 81.496 C 244.263 82.094,243.780 84.592,243.267 87.046 C 242.753 89.501,242.333 91.545,242.333 91.589 C 242.333 91.634,246.252 91.650,251.042 91.626 L 259.750 91.583 259.890 90.583 C 259.967 90.033,260.915 85.271,261.997 80.000 C 263.079 74.729,264.009 70.004,264.064 69.500 C 264.118 68.996,264.953 64.803,265.918 60.183 C 266.883 55.563,267.634 51.745,267.588 51.699 C 267.541 51.652,267.580 51.522,267.673 51.409 C 267.767 51.296,267.913 50.598,267.997 49.857 C 268.082 49.117,268.226 48.227,268.319 47.881 C 268.916 45.642,269.254 42.467,269.239 39.250 C 269.198 30.534,263.765 25.750,255.417 27.079 M314.000 27.012 C 309.444 27.392,304.458 28.848,300.856 30.851 C 300.339 31.138,299.386 31.653,298.736 31.994 C 295.619 33.632,290.196 38.356,287.535 41.750 C 286.745 42.758,286.050 43.621,285.992 43.667 C 285.721 43.879,284.333 45.893,284.333 46.074 C 284.333 46.186,284.025 46.718,283.648 47.256 C 282.887 48.342,280.333 53.016,280.333 53.322 C 280.333 53.429,280.023 54.244,279.643 55.133 C 278.350 58.162,276.595 64.151,276.909 64.465 C 276.957 64.513,276.932 64.635,276.852 64.735 C 276.267 65.469,276.060 73.159,276.553 75.821 C 277.063 78.579,278.346 81.888,279.646 83.803 C 280.024 84.360,280.333 84.861,280.333 84.917 C 280.333 85.544,284.153 88.773,286.250 89.918 C 293.256 93.746,301.423 93.985,316.833 90.814 C 318.964 90.375,325.097 88.194,329.306 86.377 C 330.935 85.674,330.783 85.961,331.490 82.250 C 331.787 80.692,332.335 77.857,332.708 75.951 C 333.490 71.954,333.475 71.870,332.147 72.710 C 331.061 73.396,327.716 75.104,326.000 75.848 C 325.313 76.146,324.712 76.433,324.667 76.487 C 324.621 76.540,324.508 76.600,324.417 76.621 C 324.325 76.642,323.537 76.950,322.667 77.306 C 316.424 79.859,307.731 81.729,304.031 81.317 C 300.851 80.962,296.790 79.091,295.965 77.600 C 294.459 74.880,294.198 74.201,293.760 71.857 C 293.245 69.096,292.952 69.361,296.917 68.990 C 299.316 68.766,302.947 68.146,305.182 67.579 C 306.078 67.352,306.952 67.167,307.124 67.167 C 308.094 67.167,312.515 65.459,316.489 63.550 C 318.429 62.618,319.538 61.936,323.083 59.492 C 332.056 53.306,336.131 39.892,331.193 32.797 C 330.371 31.616,327.293 28.902,326.988 29.091 C 326.903 29.143,326.833 29.122,326.833 29.043 C 326.833 28.859,325.506 28.213,324.703 28.007 C 324.362 27.919,323.501 27.700,322.790 27.519 C 320.357 26.902,317.382 26.730,314.000 27.012 M372.667 26.932 C 363.428 27.743,359.101 29.579,354.731 34.541 C 350.020 39.890,348.965 46.005,351.734 51.916 C 352.064 52.620,352.333 53.237,352.333 53.287 C 352.333 53.944,356.927 59.057,362.408 64.500 C 368.915 70.963,369.431 71.616,369.935 74.034 C 370.796 78.163,367.274 81.825,362.167 82.113 C 357.778 82.361,349.799 80.285,343.376 77.226 C 341.240 76.209,341.204 76.200,341.085 76.708 C 340.758 78.095,340.167 81.291,340.167 81.670 C 340.167 81.922,339.867 83.533,339.500 85.250 C 339.133 86.967,338.833 88.495,338.833 88.646 C 338.833 88.984,344.915 91.120,345.447 90.969 C 345.522 90.948,346.408 91.131,347.417 91.377 C 348.425 91.622,349.475 91.866,349.750 91.917 C 354.380 92.790,356.670 93.021,360.750 93.030 C 365.695 93.040,369.590 92.520,372.833 91.417 C 373.507 91.187,374.165 91.000,374.296 91.000 C 374.612 91.000,377.719 89.425,378.667 88.784 C 380.293 87.686,382.960 85.247,383.599 84.275 C 383.849 83.895,384.257 83.283,384.505 82.917 C 386.459 80.026,387.450 75.685,387.005 71.959 C 386.800 70.244,386.310 68.290,385.987 67.901 C 385.880 67.772,385.839 67.667,385.895 67.667 C 386.040 67.667,384.979 65.700,384.108 64.353 C 382.790 62.317,380.377 59.731,375.943 55.603 C 367.813 48.037,367.248 47.305,367.252 44.333 C 367.258 38.968,372.877 36.587,381.250 38.401 C 382.442 38.659,383.492 38.883,383.583 38.898 C 383.675 38.914,383.825 38.971,383.917 39.026 C 384.008 39.080,384.584 39.249,385.195 39.401 C 386.612 39.751,387.692 40.135,389.647 40.982 C 391.537 41.801,391.378 41.891,391.729 39.800 C 391.887 38.856,392.399 36.188,392.867 33.872 C 393.334 31.556,393.682 29.626,393.639 29.584 C 392.344 28.289,377.948 26.469,372.667 26.932 M141.033 28.708 C 140.951 29.006,140.755 29.962,140.597 30.833 C 140.241 32.793,138.858 39.404,138.662 40.083 C 138.583 40.358,138.482 40.808,138.439 41.083 C 138.395 41.358,137.904 43.617,137.347 46.103 C 136.789 48.588,136.333 50.787,136.333 50.989 C 136.333 51.305,134.981 57.656,134.503 59.583 C 134.150 61.006,132.992 66.376,132.945 66.809 C 132.918 67.060,132.845 67.346,132.784 67.445 C 132.723 67.544,132.589 68.178,132.487 68.854 C 132.385 69.530,132.128 70.908,131.916 71.917 C 131.704 72.925,131.477 74.087,131.412 74.500 C 131.347 74.912,131.265 75.400,131.230 75.583 C 130.392 79.928,130.922 84.771,132.618 88.282 C 134.844 92.888,142.628 94.464,148.503 91.498 C 149.046 91.224,149.567 91.000,149.659 91.000 C 150.488 91.000,154.813 87.555,157.410 84.827 C 158.323 83.868,159.155 83.008,159.258 82.917 C 159.362 82.825,160.076 81.925,160.845 80.917 C 161.614 79.908,162.383 78.933,162.554 78.750 C 163.021 78.250,163.812 77.077,163.980 76.638 C 164.061 76.424,164.465 75.800,164.878 75.250 C 165.887 73.905,167.338 71.495,168.542 69.167 C 169.578 67.162,169.957 66.599,169.776 67.333 C 169.618 67.969,168.409 74.210,168.096 76.000 C 167.944 76.871,167.185 80.640,166.410 84.377 C 165.634 88.113,165.000 91.282,165.000 91.418 C 165.000 91.635,166.099 91.667,173.640 91.667 L 182.280 91.667 182.469 90.792 C 182.573 90.310,182.691 89.729,182.731 89.500 C 182.771 89.271,182.960 88.377,183.151 87.513 C 183.342 86.649,183.461 85.906,183.417 85.861 C 183.373 85.817,183.403 85.699,183.485 85.599 C 183.567 85.499,183.723 84.817,183.833 84.083 C 183.942 83.350,184.396 80.950,184.841 78.750 C 185.286 76.550,185.686 74.563,185.729 74.333 C 185.773 74.104,186.302 71.568,186.904 68.697 C 187.507 65.826,188.000 63.299,188.000 63.083 C 188.000 62.866,188.754 59.065,189.675 54.636 C 190.596 50.207,191.500 45.758,191.683 44.750 C 192.221 41.780,193.455 35.511,194.233 31.797 C 194.630 29.898,194.916 28.305,194.867 28.256 C 194.818 28.207,190.904 28.167,186.168 28.167 L 177.559 28.167 176.946 31.135 C 176.609 32.767,176.333 34.323,176.332 34.593 C 176.332 34.863,176.262 35.346,176.176 35.667 C 176.091 35.987,175.984 36.475,175.940 36.750 C 175.896 37.025,175.488 39.012,175.033 41.167 C 174.578 43.321,174.037 45.945,173.829 46.997 C 173.353 49.417,172.765 50.611,169.818 55.139 C 169.123 56.209,168.429 57.346,168.276 57.667 C 168.124 57.987,167.715 58.625,167.368 59.083 C 167.021 59.542,165.996 61.004,165.089 62.333 C 163.055 65.316,161.909 66.919,161.306 67.625 C 161.052 67.923,160.586 68.570,160.271 69.062 C 159.740 69.891,158.408 71.412,156.003 73.933 C 151.362 78.797,147.967 77.131,149.513 70.750 C 150.191 67.953,152.000 59.540,152.000 59.186 C 152.000 58.982,152.383 57.076,152.852 54.949 C 153.321 52.823,153.878 50.296,154.090 49.333 C 154.302 48.371,154.749 46.346,155.082 44.833 C 155.416 43.321,155.768 41.596,155.864 41.000 C 155.961 40.404,156.594 37.367,157.271 34.250 C 157.948 31.133,158.502 28.490,158.501 28.375 C 158.500 28.211,156.656 28.167,149.841 28.167 L 141.182 28.167 141.033 28.708 M313.940 39.018 C 317.245 40.238,317.995 44.976,315.546 49.158 C 312.396 54.537,306.137 57.717,297.447 58.353 C 294.515 58.567,294.761 58.717,295.255 57.015 C 295.478 56.250,295.619 55.558,295.570 55.479 C 295.521 55.399,295.556 55.333,295.649 55.333 C 295.742 55.333,295.869 55.052,295.932 54.708 C 296.192 53.274,297.953 49.491,299.421 47.214 C 300.802 45.070,301.150 44.674,303.917 42.092 C 307.119 39.103,310.970 37.922,313.940 39.018 " stroke="none" fill="#441c7c" fill-rule="evenodd"></path><path id="path1" d="" stroke="none" fill="#481c7c" fill-rule="evenodd"></path><path id="path2" d="" stroke="none" fill="#481c7c" fill-rule="evenodd"></path><path id="path3" d="" stroke="none" fill="#481c7c" fill-rule="evenodd"></path><path id="path4" d="" stroke="none" fill="#481c7c" fill-rule="evenodd"></path></g></svg>